<svg width="24" height="24" viewBox="0 0 24 24" fill="none" xmlns="http://www.w3.org/2000/svg">
    <path
        d="M4.19997 18.073C4.19997 18.073 4.10297 18.828 4.19997 19.187C4.26747 19.436 4.33197 19.8555 4.58997 19.8555H6.03847C6.29647 19.8555 6.36097 19.436 6.42847 19.187C6.52547 18.8285 6.42847 18.073 6.42847 18.073"
        stroke="black" stroke-width="1" stroke-linecap="round" stroke-linejoin="round" />
    <path
        d="M19.5215 10.83H4.4785C3.24773 10.83 2.25 11.8277 2.25 13.0585V15.8445C2.25 17.0753 3.24773 18.073 4.4785 18.073H19.5215C20.7523 18.073 21.75 17.0753 21.75 15.8445V13.0585C21.75 11.8277 20.7523 10.83 19.5215 10.83Z"
        stroke="black" stroke-width="1" stroke-linecap="round" stroke-linejoin="round" />
    <path
        d="M17.5715 18.073C17.5715 18.073 17.4745 18.828 17.5715 19.187C17.639 19.436 17.7035 19.8555 17.9615 19.8555H19.41C19.668 19.8555 19.7325 19.436 19.8 19.187C19.897 18.8285 19.8 18.073 19.8 18.073"
        stroke="black" stroke-width="1" stroke-linecap="round" stroke-linejoin="round" />
    <path
        d="M5.31451 15.8445C5.93003 15.8445 6.42901 15.3455 6.42901 14.73C6.42901 14.1145 5.93003 13.6155 5.31451 13.6155C4.69899 13.6155 4.20001 14.1145 4.20001 14.73C4.20001 15.3455 4.69899 15.8445 5.31451 15.8445Z"
        stroke="black" stroke-width="1" stroke-linecap="round" stroke-linejoin="round" />
    <path
        d="M4.47852 10.83L5.76002 5.8155C5.97902 4.959 6.93652 4.144 7.82152 4.144H16.1785C17.0635 4.144 18.021 4.959 18.24 5.8155L19.5215 10.83"
        stroke="black" stroke-width="1" stroke-linecap="round" stroke-linejoin="round" />
    <path
        d="M18.6855 15.8445C19.301 15.8445 19.8 15.3455 19.8 14.73C19.8 14.1145 19.301 13.6155 18.6855 13.6155C18.07 13.6155 17.571 14.1145 17.571 14.73C17.571 15.3455 18.07 15.8445 18.6855 15.8445Z"
        stroke="black" stroke-width="1" stroke-linecap="round" stroke-linejoin="round" />
</svg>