<svg width="21" height="21" viewBox="0 0 21 21" fill="none" xmlns="http://www.w3.org/2000/svg">
    <path
        d="M19.891 0.00600004L19.997 0L20.127 0.0079999L20.217 0.0239999L20.34 0.059L20.447 0.105L20.547 0.162L20.637 0.229L20.719 0.304L20.771 0.363L20.853 0.479L20.905 0.575C20.952 0.675 20.982 0.781 20.995 0.891L21 0.997C21 1.072 20.992 1.146 20.976 1.217L20.941 1.34L14.409 19.417C14.2852 19.6866 14.0866 19.9149 13.8368 20.075C13.5871 20.2351 13.2966 20.3201 13 20.32C12.7328 20.3208 12.47 20.2525 12.2371 20.1216C12.0042 19.9907 11.8092 19.8017 11.671 19.573L11.606 19.446L8.25399 12.744L1.58399 9.408C1.33719 9.29513 1.12436 9.11943 0.966765 8.89849C0.809175 8.67755 0.712357 8.4191 0.685993 8.149L0.679993 8C0.679993 7.44 0.980993 6.928 1.52099 6.63L1.66099 6.56L19.678 0.0539999L19.784 0.0239999L19.891 0.00600004Z"
        fill="#E5E5F3" />
</svg>