<svg width="24" height="24" viewBox="0 0 24 24" fill="none" xmlns="http://www.w3.org/2000/svg">
<path fill-rule="evenodd" clip-rule="evenodd" d="M9.287 15.7265C9.36989 15.7046 9.45702 15.7043 9.54002 15.7258C9.62303 15.7472 9.69913 15.7897 9.761 15.849L11.3855 17.407C11.4516 17.4705 11.499 17.551 11.5224 17.6396C11.5459 17.7282 11.5445 17.8216 11.5185 17.9095L11.164 19.1065C11.0756 19.4053 10.8963 19.6692 10.651 19.8615L8.32951 21.6795C8.17467 21.8032 7.99685 21.895 7.80632 21.9496C7.6158 22.0041 7.41635 22.0204 7.2195 21.9975C7.02265 21.9745 6.8323 21.9128 6.65944 21.8158C6.48659 21.7189 6.33467 21.5886 6.21245 21.4326C6.09023 21.2766 6.00013 21.0979 5.94738 20.9069C5.89462 20.7158 5.88024 20.5162 5.90507 20.3196C5.9299 20.123 5.99345 19.9332 6.09205 19.7613C6.19065 19.5894 6.32233 19.4387 6.47951 19.318L8.42401 17.795L8.93551 16.0675C8.95993 15.9853 9.00509 15.9107 9.06665 15.851C9.12821 15.7913 9.20409 15.7484 9.287 15.7265ZM9.66151 17.1385L9.33701 18.232C9.3075 18.3316 9.24774 18.4195 9.16601 18.4835L7.09601 20.1055C6.99516 20.1884 6.93074 20.3075 6.91653 20.4373C6.90232 20.5671 6.93944 20.6973 7.01995 20.8C7.10046 20.9028 7.21799 20.97 7.3474 20.9873C7.47681 21.0046 7.60785 20.9706 7.71251 20.8925L10.034 19.074C10.1159 19.01 10.1759 18.9221 10.2055 18.8225L10.4735 17.9175L9.66151 17.1385ZM14 6C14.3978 6 14.7794 5.84196 15.0607 5.56066C15.342 5.27936 15.5 4.89782 15.5 4.5C15.5 4.10218 15.342 3.72064 15.0607 3.43934C14.7794 3.15804 14.3978 3 14 3C13.6022 3 13.2206 3.15804 12.9393 3.43934C12.658 3.72064 12.5 4.10218 12.5 4.5C12.5 4.89782 12.658 5.27936 12.9393 5.56066C13.2206 5.84196 13.6022 6 14 6ZM14 7C14.663 7 15.2989 6.73661 15.7678 6.26777C16.2366 5.79893 16.5 5.16304 16.5 4.5C16.5 3.83696 16.2366 3.20107 15.7678 2.73223C15.2989 2.26339 14.663 2 14 2C13.337 2 12.7011 2.26339 12.2322 2.73223C11.7634 3.20107 11.5 3.83696 11.5 4.5C11.5 5.16304 11.7634 5.79893 12.2322 6.26777C12.7011 6.73661 13.337 7 14 7Z" fill="black"/>
<path fill-rule="evenodd" clip-rule="evenodd" d="M10.8685 7.182C11.5825 6.917 12.3495 6.932 13.038 7.2885C13.693 7.627 14.1365 8.2 14.4155 8.799C14.5205 9.0235 14.6165 9.2325 14.707 9.4285C14.927 9.9055 15.107 10.297 15.2795 10.6385C15.5225 11.122 15.7005 11.4055 15.8575 11.5885C15.9925 11.745 16.108 11.8245 16.257 11.8825C16.432 11.9515 16.7185 12.014 17.228 12.0295C17.5984 12.0406 17.9492 12.1983 18.2033 12.468C18.4573 12.7378 18.5939 13.0974 18.5828 13.4678C18.5717 13.8381 18.414 14.1889 18.1442 14.443C17.8745 14.6971 17.5149 14.8336 17.1445 14.8225C16.466 14.802 15.8275 14.715 15.24 14.4855C14.626 14.2455 14.1415 13.879 13.7375 13.408C13.6895 13.3521 13.6429 13.2951 13.5975 13.237L13.396 14.289L15.5795 16.4435C15.719 16.5805 15.8275 16.7455 15.899 16.9275L17.141 20.0925C17.208 20.2633 17.2408 20.4456 17.2373 20.629C17.2339 20.8124 17.1943 20.9934 17.1209 21.1615C17.0475 21.3297 16.9418 21.4817 16.8096 21.609C16.6775 21.7363 16.5216 21.8362 16.3508 21.9033C16.18 21.9703 15.9977 22.003 15.8143 21.9995C15.6308 21.9961 15.4499 21.9565 15.2817 21.8831C15.1136 21.8098 14.9616 21.704 14.8343 21.5718C14.707 21.4397 14.607 21.2838 14.54 21.113L13.406 18.2245L9.47653 14.347C9.32592 14.1984 9.21104 14.0176 9.14053 13.8181C9.07003 13.6186 9.04575 13.4057 9.06953 13.1955L9.23203 11.7605C8.78603 12.337 8.41103 13.0305 8.14903 13.8505C8.03638 14.2035 7.78811 14.4973 7.45885 14.6673C7.12958 14.8372 6.74628 14.8694 6.39328 14.7568C6.04028 14.6441 5.74648 14.3958 5.57653 14.0666C5.40657 13.7373 5.37438 13.354 5.48703 13.001C6.37103 10.232 8.37053 8.1465 10.852 7.1885L10.855 7.187L10.8685 7.182ZM11.2185 8.119L11.2105 8.122C9.01953 8.9685 7.23353 10.8175 6.44003 13.305C6.42417 13.3547 6.41826 13.407 6.42261 13.4589C6.42697 13.5109 6.44152 13.5615 6.46543 13.6078C6.48935 13.6542 6.52215 13.6953 6.56197 13.729C6.6018 13.7627 6.64786 13.7881 6.69753 13.804C6.7472 13.8199 6.79951 13.8258 6.85147 13.8214C6.90343 13.8171 6.95402 13.8025 7.00036 13.7786C7.0467 13.7547 7.08787 13.7219 7.12153 13.6821C7.15519 13.6422 7.18067 13.5962 7.19653 13.5465C7.69353 11.99 8.55903 10.8125 9.57653 9.9815C9.6535 9.9187 9.74742 9.88025 9.84633 9.87105C9.94524 9.86185 10.0446 9.88232 10.1319 9.92985C10.2191 9.97738 10.2902 10.0498 10.3361 10.1379C10.382 10.226 10.4006 10.3258 10.3895 10.4245L10.0635 13.308C10.0568 13.3677 10.0637 13.4281 10.0837 13.4848C10.1037 13.5414 10.1363 13.5928 10.179 13.635L14.184 17.587C14.234 17.636 14.273 17.695 14.2985 17.76L15.471 20.748C15.4894 20.7975 15.5174 20.8428 15.5535 20.8812C15.5896 20.9197 15.6329 20.9507 15.6811 20.9722C15.7292 20.9938 15.7812 21.0055 15.8339 21.0067C15.8867 21.0079 15.9391 20.9987 15.9882 20.9794C16.0373 20.9601 16.0821 20.9313 16.1199 20.8945C16.1578 20.8577 16.1879 20.8138 16.2085 20.7652C16.2292 20.7167 16.2399 20.6645 16.2402 20.6118C16.2405 20.559 16.2302 20.5067 16.21 20.458L14.968 17.293C14.9479 17.2412 14.917 17.1942 14.8775 17.155L12.5035 14.813C12.445 14.7553 12.4016 14.684 12.3772 14.6055C12.3528 14.527 12.3481 14.4437 12.3635 14.363L12.854 11.8005C12.8735 11.6986 12.9241 11.6052 12.999 11.5334C13.0738 11.4615 13.1692 11.4148 13.2718 11.3995C13.3745 11.3843 13.4793 11.4014 13.5718 11.4484C13.6643 11.4955 13.7399 11.5701 13.788 11.662C14.013 12.0905 14.238 12.457 14.496 12.757C14.804 13.1155 15.1565 13.379 15.604 13.554C16.044 13.726 16.5565 13.804 17.174 13.8225C17.2267 13.8251 17.2794 13.8171 17.329 13.7991C17.3786 13.7811 17.4241 13.7534 17.4628 13.7176C17.5016 13.6818 17.5328 13.6386 17.5547 13.5906C17.5765 13.5426 17.5886 13.4907 17.5902 13.438C17.5918 13.3852 17.5829 13.3327 17.564 13.2835C17.545 13.2342 17.5165 13.1893 17.4799 13.1512C17.4434 13.1131 17.3997 13.0827 17.3513 13.0617C17.3029 13.0407 17.2508 13.0296 17.198 13.029C16.628 13.012 16.216 12.9405 15.893 12.814C15.578 12.691 15.33 12.509 15.099 12.2395C14.861 11.963 14.64 11.5925 14.3865 11.0885C14.1847 10.6801 13.9897 10.2684 13.8015 9.8535L13.799 9.8475C13.709 9.6515 13.613 9.4435 13.509 9.221C13.294 8.76 12.984 8.386 12.579 8.1765C12.165 7.9625 11.6945 7.9425 11.2185 8.119Z" fill="black"/>
</svg>
